<svg width="448" height="292" viewBox="0 0 448 292" fill="none" xmlns="http://www.w3.org/2000/svg">
<path d="M0 290.741H448" stroke="#FFA600" stroke-width="2" stroke-miterlimit="10"/>
<path d="M70 223.137H0" stroke="#FFA600" stroke-width="2" stroke-miterlimit="10"/>
<path d="M448 223.137H378" stroke="#FFA600" stroke-width="2" stroke-miterlimit="10"/>
<path d="M224 74.4068V0.0418091" stroke="#FFA600" stroke-width="2" stroke-miterlimit="10"/>
<path d="M98 128.491L42 74.4069" stroke="#FFA600" stroke-width="2" stroke-miterlimit="10"/>
<path d="M350 128.491L406 74.4069" stroke="#FFA600" stroke-width="2" stroke-miterlimit="10"/>
<path d="M337.113 290.741C349.72 271.109 357 247.941 357 223.137C357 152.199 297.458 94.6882 224 94.6882C150.542 94.6882 91 152.199 91 223.137C91 247.934 98.28 271.096 110.887 290.728" fill="#FFA600"/>
<path d="M337.113 290.741C349.72 271.109 357 247.941 357 223.137C357 152.199 297.458 94.6882 224 94.6882C150.542 94.6882 91 152.199 91 223.137C91 247.934 98.28 271.096 110.887 290.728" stroke="#FFA600" stroke-width="2" stroke-miterlimit="10"/>
</svg>
